{
    "asset" : {
        "generator" : "Khronos glTF Blender I/O v3.4.50",
        "version" : "2.0"
    },
    "scene" : 0,
    "scenes" : [
        {
            "name" : "Scene",
            "nodes" : [
                1
            ]
        }
    ],
    "nodes" : [
        {
            "mesh" : 0,
            "name" : "Duck_Normal_Combined",
            "scale" : [
                661.8482055664062,
                661.8482055664062,
                661.8482055664062
            ],
            "translation" : [
                0.3985021412372589,
                0.0005739029729738832,
                3521.860107421875
            ]
        },
        {
            "children" : [
                0
            ],
            "name" : "Duck_Model_Combined",
            "rotation" : [
                0.70710688829422,
                0,
                0,
                0.7071066498756409
            ],
            "scale" : [
                0.009999999776482582,
                0.009999999776482582,
                0.009999999776482582
            ],
            "translation" : [
                -0.007670274004340172,
                0,
                0.014696421101689339
            ]
        }
    ],
    "materials" : [
        {
            "doubleSided" : true,
            "name" : "Material.001",
            "pbrMetallicRoughness" : {
                "metallicFactor" : 0,
                "roughnessFactor" : 0.5
            }
        }
    ],
    "meshes" : [
        {
            "extras" : {
                "targetNames" : [
                    "Duck_Stretch_Combined",
                    "Duck_Stretch_Far_Combined",
                    "Duck_Squash_Combined"
                ]
            },
            "name" : "Mesh",
            "primitives" : [
                {
                    "attributes" : {
                        "COLOR_0" : 0,
                        "POSITION" : 1,
                        "TEXCOORD_0" : 2,
                        "NORMAL" : 3
                    },
                    "indices" : 4,
                    "material" : 0,
                    "targets" : [
                        {
                            "POSITION" : 5,
                            "NORMAL" : 6
                        },
                        {
                            "POSITION" : 7,
                            "NORMAL" : 8
                        },
                        {
                            "POSITION" : 9,
                            "NORMAL" : 10
                        }
                    ]
                }
            ],
            "weights" : [
                0,
                0,
                0
            ]
        }
    ],
    "accessors" : [
        {
            "bufferView" : 0,
            "componentType" : 5123,
            "count" : 3512,
            "normalized" : true,
            "type" : "VEC4"
        },
        {
            "bufferView" : 1,
            "componentType" : 5126,
            "count" : 3512,
            "max" : [
                2.7973294258117676,
                2.457794427871704,
                -5.014354228973389
            ],
            "min" : [
                -3.180082082748413,
                -3.659151315689087,
                -11.054862976074219
            ],
            "type" : "VEC3"
        },
        {
            "bufferView" : 2,
            "componentType" : 5126,
            "count" : 3512,
            "type" : "VEC2"
        },
        {
            "bufferView" : 3,
            "componentType" : 5126,
            "count" : 3512,
            "type" : "VEC3"
        },
        {
            "bufferView" : 4,
            "componentType" : 5123,
            "count" : 18240,
            "type" : "SCALAR"
        },
        {
            "bufferView" : 5,
            "componentType" : 5126,
            "count" : 3512,
            "max" : [
                2.3502657413482666,
                1.4090533256530762,
                -0.0006723403930664062
            ],
            "min" : [
                -2.349461793899536,
                -1.1966662406921387,
                -1.6552562713623047
            ],
            "type" : "VEC3"
        },
        {
            "bufferView" : 6,
            "componentType" : 5126,
            "count" : 3512,
            "type" : "VEC3"
        },
        {
            "bufferView" : 7,
            "componentType" : 5126,
            "count" : 3512,
            "max" : [
                1.944446325302124,
                1.0831751823425293,
                0.0895223617553711
            ],
            "min" : [
                -3.3262088298797607,
                -0.9203202724456787,
                -1.5959854125976562
            ],
            "type" : "VEC3"
        },
        {
            "bufferView" : 8,
            "componentType" : 5126,
            "count" : 3512,
            "type" : "VEC3"
        },
        {
            "bufferView" : 9,
            "componentType" : 5126,
            "count" : 3512,
            "max" : [
                0.7144694328308105,
                0.8539025783538818,
                1.8701815605163574
            ],
            "min" : [
                -0.7253663539886475,
                -0.6195447444915771,
                1.9073486328125e-05
            ],
            "type" : "VEC3"
        },
        {
            "bufferView" : 10,
            "componentType" : 5126,
            "count" : 3512,
            "type" : "VEC3"
        }
    ],
    "bufferViews" : [
        {
            "buffer" : 0,
            "byteLength" : 28096,
            "byteOffset" : 0,
            "target" : 34962
        },
        {
            "buffer" : 0,
            "byteLength" : 42144,
            "byteOffset" : 28096,
            "target" : 34962
        },
        {
            "buffer" : 0,
            "byteLength" : 28096,
            "byteOffset" : 70240,
            "target" : 34962
        },
        {
            "buffer" : 0,
            "byteLength" : 42144,
            "byteOffset" : 98336,
            "target" : 34962
        },
        {
            "buffer" : 0,
            "byteLength" : 36480,
            "byteOffset" : 140480,
            "target" : 34963
        },
        {
            "buffer" : 0,
            "byteLength" : 42144,
            "byteOffset" : 176960,
            "target" : 34962
        },
        {
            "buffer" : 0,
            "byteLength" : 42144,
            "byteOffset" : 219104,
            "target" : 34962
        },
        {
            "buffer" : 0,
            "byteLength" : 42144,
            "byteOffset" : 261248,
            "target" : 34962
        },
        {
            "buffer" : 0,
            "byteLength" : 42144,
            "byteOffset" : 303392,
            "target" : 34962
        },
        {
            "buffer" : 0,
            "byteLength" : 42144,
            "byteOffset" : 345536,
            "target" : 34962
        },
        {
            "buffer" : 0,
            "byteLength" : 42144,
            "byteOffset" : 387680,
            "target" : 34962
        }
    ],
    "buffers" : [
        {
            "byteLength" : 429824,
            "uri" : "data:application/octet-stream;base64,"
        }
    ]
}
