{
	"asset":{
		"generator":"Khronos glTF Blender I/O v5.0.21",
		"version":"2.0"
	},
	"extensionsUsed":[
		"KHR_materials_specular",
		"KHR_materials_ior"
	],
	"scene":0,
	"scenes":[
		{
			"name":"Scene",
			"nodes":[
				0
			]
		}
	],
	"nodes":[
		{
			"mesh":0,
			"name":"Duck_Normal_Combined.001",
			"rotation":[
				0.70710688829422,
				0,
				0,
				0.7071066498756409
			],
			"scale":[
				0.009999999776482582,
				0.009999998845160007,
				0.009999998845160007
			],
			"translation":[
				-0.0036852522753179073,
				-0.0019735954701900482,
				0.014696421101689339
			]
		}
	],
	"animations":[
		{
			"channels":[
				{
					"sampler":0,
					"target":{
						"node":0,
						"path":"translation"
					}
				},
				{
					"sampler":1,
					"target":{
						"node":0,
						"path":"rotation"
					}
				},
				{
					"sampler":2,
					"target":{
						"node":0,
						"path":"scale"
					}
				}
			],
			"name":"Duck_Normal_Combined.001",
			"samplers":[
				{
					"input":10,
					"interpolation":"STEP",
					"output":11
				},
				{
					"input":10,
					"interpolation":"STEP",
					"output":12
				},
				{
					"input":10,
					"interpolation":"STEP",
					"output":13
				}
			]
		},
		{
			"channels":[
				{
					"sampler":0,
					"target":{
						"node":0,
						"path":"weights"
					}
				}
			],
			"name":"Key.001|Take 001|BaseLayer",
			"samplers":[
				{
					"input":14,
					"interpolation":"LINEAR",
					"output":15
				}
			]
		}
	],
	"materials":[
		{
			"doubleSided":true,
			"extensions":{
				"KHR_materials_specular":{
					"specularColorFactor":[
						0.0,
						0.0,
						0.0
					]
				},
				"KHR_materials_ior":{
					"ior":1.4500000476837158
				}
			},
			"name":"aiStandardSurface1.001",
			"pbrMetallicRoughness":{
				"baseColorTexture":{
					"index":0
				},
				"metallicFactor":0
			}
		}
	],
	"meshes":[
		{
			"extras":{
				"targetNames":[
					"Duck_Stretch_Combined",
					"Duck_Stretch_Far_Combined",
					"Duck_Squash_Combined"
				]
			},
			"name":"Mesh.001",
			"primitives":[
				{
					"attributes":{
						"POSITION":0,
						"NORMAL":1,
						"TEXCOORD_0":2
					},
					"indices":3,
					"material":0,
					"targets":[
						{
							"POSITION":4,
							"NORMAL":5
						},
						{
							"POSITION":6,
							"NORMAL":7
						},
						{
							"POSITION":8,
							"NORMAL":9
						}
					]
				}
			],
			"weights":[
				0,
				0,
				0
			]
		}
	],
	"textures":[
		{
			"sampler":0,
			"source":0
		}
	],
	"images":[
		{
			"mimeType":"image/png",
			"name":"texture",
			"uri":"texture.png"
		}
	],
	"accessors":[
		{
			"bufferView":0,
			"componentType":5126,
			"count":3512,
			"max":[
				2.7973294258117676,
				2.457794427871704,
				-5.014354228973389
			],
			"min":[
				-3.180082082748413,
				-3.659151315689087,
				-11.054862976074219
			],
			"type":"VEC3"
		},
		{
			"bufferView":1,
			"componentType":5126,
			"count":3512,
			"type":"VEC3"
		},
		{
			"bufferView":2,
			"componentType":5126,
			"count":3512,
			"type":"VEC2"
		},
		{
			"bufferView":3,
			"componentType":5123,
			"count":18240,
			"type":"SCALAR"
		},
		{
			"bufferView":4,
			"componentType":5126,
			"count":3512,
			"max":[
				2.3502657413482666,
				1.4090533256530762,
				-0.0006723403930664062
			],
			"min":[
				-2.349461793899536,
				-1.1966662406921387,
				-1.6552562713623047
			],
			"type":"VEC3"
		},
		{
			"bufferView":5,
			"componentType":5126,
			"count":3512,
			"type":"VEC3"
		},
		{
			"bufferView":6,
			"componentType":5126,
			"count":3512,
			"max":[
				1.944446325302124,
				1.0831751823425293,
				0.0895223617553711
			],
			"min":[
				-3.3262088298797607,
				-0.9203202724456787,
				-1.5959854125976562
			],
			"type":"VEC3"
		},
		{
			"bufferView":7,
			"componentType":5126,
			"count":3512,
			"type":"VEC3"
		},
		{
			"bufferView":8,
			"componentType":5126,
			"count":3512,
			"max":[
				0.7144694328308105,
				0.8539025783538818,
				1.8701815605163574
			],
			"min":[
				-0.7253663539886475,
				-0.6195447444915771,
				1.9073486328125e-05
			],
			"type":"VEC3"
		},
		{
			"bufferView":9,
			"componentType":5126,
			"count":3512,
			"type":"VEC3"
		},
		{
			"bufferView":10,
			"componentType":5126,
			"count":2,
			"max":[
				0.875
			],
			"min":[
				0.041666666666666664
			],
			"type":"SCALAR"
		},
		{
			"bufferView":11,
			"componentType":5126,
			"count":2,
			"type":"VEC3"
		},
		{
			"bufferView":12,
			"componentType":5126,
			"count":2,
			"type":"VEC4"
		},
		{
			"bufferView":13,
			"componentType":5126,
			"count":2,
			"type":"VEC3"
		},
		{
			"bufferView":14,
			"componentType":5126,
			"count":20,
			"max":[
				0.875
			],
			"min":[
				0.08333333333333333
			],
			"type":"SCALAR"
		},
		{
			"bufferView":15,
			"componentType":5126,
			"count":60,
			"type":"SCALAR"
		}
	],
	"bufferViews":[
		{
			"buffer":0,
			"byteLength":42144,
			"byteOffset":0,
			"target":34962
		},
		{
			"buffer":0,
			"byteLength":42144,
			"byteOffset":42144,
			"target":34962
		},
		{
			"buffer":0,
			"byteLength":28096,
			"byteOffset":84288,
			"target":34962
		},
		{
			"buffer":0,
			"byteLength":36480,
			"byteOffset":112384,
			"target":34963
		},
		{
			"buffer":0,
			"byteLength":42144,
			"byteOffset":148864,
			"target":34962
		},
		{
			"buffer":0,
			"byteLength":42144,
			"byteOffset":191008,
			"target":34962
		},
		{
			"buffer":0,
			"byteLength":42144,
			"byteOffset":233152,
			"target":34962
		},
		{
			"buffer":0,
			"byteLength":42144,
			"byteOffset":275296,
			"target":34962
		},
		{
			"buffer":0,
			"byteLength":42144,
			"byteOffset":317440,
			"target":34962
		},
		{
			"buffer":0,
			"byteLength":42144,
			"byteOffset":359584,
			"target":34962
		},
		{
			"buffer":0,
			"byteLength":8,
			"byteOffset":401728
		},
		{
			"buffer":0,
			"byteLength":24,
			"byteOffset":401736
		},
		{
			"buffer":0,
			"byteLength":32,
			"byteOffset":401760
		},
		{
			"buffer":0,
			"byteLength":24,
			"byteOffset":401792
		},
		{
			"buffer":0,
			"byteLength":80,
			"byteOffset":401816
		},
		{
			"buffer":0,
			"byteLength":240,
			"byteOffset":401896
		}
	],
	"samplers":[
		{
			"magFilter":9729,
			"minFilter":9987
		}
	],
	"buffers":[
		{
			"byteLength":402136,
			"uri":"duck_anim1.bin"
		}
	]
}
